<?xml version="1.0" encoding="UTF-8"?>
<svg width="32px" height="28px" viewBox="0 0 32 28" version="1.1" xmlns="http://www.w3.org/2000/svg" xmlns:xlink="http://www.w3.org/1999/xlink">
    <!-- Generator: Sketch 62 (91390) - https://sketch.com -->
    <title>blog</title>
    <desc>Created with Sketch.</desc>
    <defs>
        <linearGradient x1="50%" y1="0%" x2="50%" y2="100%" id="linearGradient-1">
            <stop stop-color="#FFAB36" offset="0%"></stop>
            <stop stop-color="#DB7309" offset="100%"></stop>
        </linearGradient>
    </defs>
    <g id="Social-Media" stroke="none" stroke-width="1" fill="none" fill-rule="evenodd">
        <path d="M16,0 C24.836556,0 32,5.372583 32,12 C32,18.627417 24.836556,24 16,24 C15.3736897,24 14.7557844,23.9730104 14.148239,23.9204974 C11.4172545,26.3065715 8.03410776,27.5 4,27.5 C5.58352264,25.5205967 6.57933967,23.6587345 6.98745108,21.9144135 C2.76784972,19.7543423 0,16.1195959 0,12 C0,5.372583 7.163444,0 16,0 Z M25.1499023,7.35791016 C25.0694987,7.35791016 24.9848633,7.36002604 24.8959961,7.36425781 C23.1017253,7.49121094 22.1305339,9.08024089 21.9824219,12.1313477 C21.9697266,12.3683268 21.9633789,12.5947266 21.9633789,12.8105469 C21.9633789,15.4088542 22.7779948,16.7080078 24.4072266,16.7080078 C26.1047712,16.7080078 26.9838568,15.6809991 27.0444834,13.6269818 L27.0478516,13.3945312 L27.6953125,13.3818359 L27.6953125,11.8266602 L24.4516602,11.7758789 L24.3881836,13.2041016 L25.6513672,13.1850586 C25.655599,13.2866211 25.6577148,13.3860677 25.6577148,13.4833984 C25.6577148,14.4482422 25.3614909,14.9306641 24.769043,14.9306641 C23.9577185,14.9306641 23.5181955,14.3682434 23.4504741,13.2434022 L23.4423828,13.0390625 L23.4423828,12.7597656 C23.4423828,11.6341146 23.586263,10.7644857 23.8740234,10.1508789 C24.1356238,9.59305457 24.4706682,9.28878675 24.8791564,9.23807545 L25.0039062,9.23046875 L25.1181641,9.23046875 C25.6061401,9.28204346 25.8746758,9.78179741 25.9237709,10.7297306 L25.9306641,10.925293 L27.371582,10.9125977 C27.3842773,10.7263997 27.390625,10.5486654 27.390625,10.3793945 C27.390625,8.36507161 26.6437174,7.35791016 25.1499023,7.35791016 Z M12.6005859,7.13574219 L10.6899414,7.30712891 C10.7999674,9.82503255 10.8549805,12.3556315 10.8549805,14.8989258 C10.8549805,15.4532878 10.8528646,16.0097656 10.8486328,16.5683594 L15.3808594,16.4667969 L15.3364258,14.3974609 L12.5053711,14.5371094 C12.4926758,14.008138 12.4863281,13.4305013 12.4863281,12.8041992 C12.4863281,11.3730913 12.5178041,9.68143213 12.5807561,7.72922182 L12.6005859,7.13574219 Z M6.75439453,7.11669922 C6.21272786,7.11669922 5.58219401,7.15478516 4.86279297,7.23095703 C4.91357422,9.08870443 4.93896484,11.0035807 4.93896484,12.9755859 C4.93896484,14.1181641 4.9305013,15.2797852 4.91357422,16.4604492 C5.42138672,16.5027669 5.8889974,16.5239258 6.31640625,16.5239258 C6.86230469,16.5239258 7.33837891,16.4879557 7.74462891,16.4160156 C8.46402995,16.2848307 9.02579753,16.0415039 9.42993164,15.6860352 C9.83406576,15.3305664 10.0615234,14.7931315 10.1123047,14.0737305 C10.1207682,13.9594727 10.125,13.8494466 10.125,13.7436523 C10.125,13.1935221 10.0128581,12.7703451 9.78857422,12.4741211 C9.52197266,12.1228841 9.08186849,11.9007161 8.46826172,11.8076172 C9.01839193,11.608724 9.40136719,11.2786458 9.6171875,10.8173828 C9.77376302,10.4788411 9.85205078,10.0789388 9.85205078,9.61767578 C9.85205078,9.45686849 9.84358724,9.28971354 9.82666016,9.11621094 C9.75048828,8.4391276 9.41617839,7.90169271 8.82373047,7.50390625 C8.43863932,7.24576823 7.74886068,7.11669922 6.75439453,7.11669922 Z M18.9482422,7.32617188 C16.9127604,7.32617188 15.8950195,8.79459635 15.8950195,11.7314453 C15.8950195,14.8925781 16.8492839,16.4731445 18.7578125,16.4731445 C20.6663411,16.4731445 21.6206055,14.9475911 21.6206055,11.8964844 C21.6206055,8.84960938 20.7298177,7.32617188 18.9482422,7.32617188 Z M7.17333984,12.7026367 C7.83772786,12.7026367 8.26090495,12.8190104 8.44287109,13.0517578 C8.55289714,13.195638 8.60791016,13.362793 8.60791016,13.5532227 C8.60791016,13.7478841 8.55078125,13.9658203 8.43652344,14.2070312 C8.22916667,14.6386719 7.73193359,14.8544922 6.94482422,14.8544922 L6.80834961,14.8529053 L6.80834961,14.8529053 L6.66552734,14.8481445 L6.66552734,12.7216797 C6.84749349,12.7089844 7.01676432,12.7026367 7.17333984,12.7026367 Z M18.8720703,9.35742188 C19.6083984,9.35742188 19.9765625,10.2609049 19.9765625,12.0678711 C19.9765625,13.8748372 19.5808919,14.7783203 18.7895508,14.7783203 C18.0447591,14.7783203 17.6723633,13.9806315 17.6723633,12.3852539 C17.6723633,12.2836914 17.6744792,12.1778971 17.6787109,12.0678711 C17.733724,10.2609049 18.1315104,9.35742188 18.8720703,9.35742188 Z M6.99560547,8.66552734 C7.60498047,8.66552734 7.98372396,8.8453776 8.13183594,9.20507812 C8.21647135,9.4124349 8.25878906,9.62190755 8.25878906,9.83349609 C8.25878906,10.0874023 8.20166016,10.3455404 8.08740234,10.6079102 C7.8758138,11.1030273 7.37646484,11.3717448 6.58935547,11.4140625 L6.54492188,8.69091797 C6.70996094,8.67399089 6.8601888,8.66552734 6.99560547,8.66552734 Z" id="blog" fill="url(#linearGradient-1)"></path>
    </g>
</svg>