<?xml version="1.0" encoding="UTF-8"?>
<svg width="22px" height="18px" viewBox="0 0 22 18" version="1.1" xmlns="http://www.w3.org/2000/svg" xmlns:xlink="http://www.w3.org/1999/xlink">
    <!-- Generator: Sketch 62 (91390) - https://sketch.com -->
    <title>twitter</title>
    <desc>Created with Sketch.</desc>
    <defs>
        <linearGradient x1="50%" y1="0%" x2="50%" y2="100%" id="linearGradient-1">
            <stop stop-color="#FFAB36" offset="0%"></stop>
            <stop stop-color="#DB7309" offset="100%"></stop>
        </linearGradient>
    </defs>
    <g id="Social-Media" stroke="none" stroke-width="1" fill="none" fill-rule="evenodd">
        <path d="M6.91187739,18 C4.3550447,18 1.99489144,17.2370487 0,15.9654631 C0.365261814,15.9937206 0.702426564,16.021978 1.06768838,16.021978 C3.17496807,16.021978 5.14176245,15.2872841 6.68710089,14.0722135 C4.72030651,14.043956 3.03448276,12.7158556 2.47254151,10.9073783 C2.75351213,10.9638932 3.03448276,10.9921507 3.31545338,10.9921507 C3.73690932,10.9921507 4.1302682,10.9356358 4.49553001,10.822606 C2.41634738,10.4270016 0.87100894,8.59026688 0.87100894,6.4144427 C0.87100894,6.38618524 0.87100894,6.38618524 0.87100894,6.35792779 C1.48914432,6.69701727 2.16347382,6.89481947 2.92209451,6.92307692 C1.71392082,6.10361068 0.927203065,4.71899529 0.927203065,3.13657771 C0.927203065,2.31711146 1.15197957,1.52590267 1.54533844,0.847723705 C3.76500639,3.58869702 7.10855683,5.39717425 10.8454662,5.59497645 C10.761175,5.25588697 10.7330779,4.91679749 10.7330779,4.54945055 C10.7330779,2.03453689 12.7560664,0 15.256705,0 C16.5491699,0 17.7292465,0.565149137 18.5440613,1.4411303 C19.5836526,1.2433281 20.5389527,0.847723705 21.4099617,0.339089482 C21.0727969,1.41287284 20.3703704,2.288854 19.4150702,2.85400314 C20.3141762,2.74097331 21.1851852,2.4866562 22,2.14756672 C21.3818646,3.05180534 20.6232439,3.87127159 19.752235,4.49293564 L19.752235,5.08634223 C19.752235,11.0769231 15.2005109,18 6.91187739,18" id="twitter" fill="url(#linearGradient-1)" fill-rule="nonzero"></path>
    </g>
</svg>