<svg xmlns="http://www.w3.org/2000/svg" xmlns:xlink="http://www.w3.org/1999/xlink" viewBox="0 0 100 39.5"><defs><style>.cls-1{isolation:isolate;}.cls-2{fill:#cc6e2d;}.cls-10,.cls-11,.cls-12,.cls-13,.cls-14,.cls-15,.cls-16,.cls-17,.cls-18,.cls-19,.cls-2,.cls-20,.cls-21,.cls-22,.cls-23,.cls-24,.cls-25,.cls-26,.cls-27,.cls-28,.cls-29,.cls-3,.cls-30,.cls-31,.cls-32,.cls-33,.cls-5,.cls-6,.cls-7,.cls-8,.cls-9{fill-rule:evenodd;}.cls-3{fill:#e6774f;}.cls-4{opacity:0.2;}.cls-25,.cls-31,.cls-32,.cls-4{mix-blend-mode:multiply;}.cls-5{fill:url(#Áåçûìÿííûé_ãðàäèåíò_149);}.cls-6{fill:url(#Áåçûìÿííûé_ãðàäèåíò_149-2);}.cls-7{fill:url(#Áåçûìÿííûé_ãðàäèåíò_149-3);}.cls-8{fill:url(#Áåçûìÿííûé_ãðàäèåíò_149-4);}.cls-9{fill:url(#Áåçûìÿííûé_ãðàäèåíò_149-5);}.cls-10{fill:url(#Áåçûìÿííûé_ãðàäèåíò_149-6);}.cls-11{fill:url(#Áåçûìÿííûé_ãðàäèåíò_149-7);}.cls-12{fill:url(#Áåçûìÿííûé_ãðàäèåíò_149-8);}.cls-13{fill:#f68b43;}.cls-14{fill:#801b35;}.cls-15{fill:#e16933;}.cls-16{fill:#914520;}.cls-17{fill:#b74135;}.cls-18{fill:#a32735;}.cls-19{fill:#8a2335;}.cls-20{fill:#e1774f;}.cls-21{fill:#dc6350;}.cls-22{fill:#f2774f;}.cls-23{fill:#fdca71;mix-blend-mode:soft-light;}.cls-24{fill:#d9772c;opacity:0.4;}.cls-25,.cls-32{opacity:0.6;}.cls-25{fill:url(#Áåçûìÿííûé_ãðàäèåíò_149-9);}.cls-26{fill:url(#Áåçûìÿííûé_ãðàäèåíò_52);}.cls-27{fill:#ffe303;}.cls-28{fill:#febd19;}.cls-29{fill:#f7ec23;}.cls-30{fill:#f28721;}.cls-31{fill:#a62278;opacity:0.3;}.cls-32{fill:url(#Áåçûìÿííûé_ãðàäèåíò_149-10);}.cls-33{fill:url(#Áåçûìÿííûé_ãðàäèåíò_52-2);}.cls-34{font-size:18.45px;fill:#fff;font-family:CurseCasualRegular, Curse Casual;}</style><linearGradient id="Áåçûìÿííûé_ãðàäèåíò_149" x1="19.31" y1="22.66" x2="99.84" y2="22.66" gradientUnits="userSpaceOnUse"><stop offset="0" stop-color="#c57cb4"/><stop offset="1" stop-color="#984678"/></linearGradient><linearGradient id="Áåçûìÿííûé_ãðàäèåíò_149-2" x1="23.52" y1="26.4" x2="99.74" y2="26.4" xlink:href="#Áåçûìÿííûé_ãðàäèåíò_149"/><linearGradient id="Áåçûìÿííûé_ãðàäèåíò_149-3" x1="8" y1="19.22" x2="43.2" y2="19.22" xlink:href="#Áåçûìÿííûé_ãðàäèåíò_149"/><linearGradient id="Áåçûìÿííûé_ãðàäèåíò_149-4" x1="40.75" y1="31" x2="91.12" y2="31" xlink:href="#Áåçûìÿííûé_ãðàäèåíò_149"/><linearGradient id="Áåçûìÿííûé_ãðàäèåíò_149-5" x1="54.36" y1="29.6" x2="75.35" y2="29.6" xlink:href="#Áåçûìÿííûé_ãðàäèåíò_149"/><linearGradient id="Áåçûìÿííûé_ãðàäèåíò_149-6" x1="63.49" y1="15.44" x2="81.29" y2="15.44" xlink:href="#Áåçûìÿííûé_ãðàäèåíò_149"/><linearGradient id="Áåçûìÿííûé_ãðàäèåíò_149-7" x1="34.76" y1="9.2" x2="59.67" y2="9.2" xlink:href="#Áåçûìÿííûé_ãðàäèåíò_149"/><linearGradient id="Áåçûìÿííûé_ãðàäèåíò_149-8" x1="1.45" y1="16.54" x2="23.52" y2="16.54" xlink:href="#Áåçûìÿííûé_ãðàäèåíò_149"/><linearGradient id="Áåçûìÿííûé_ãðàäèåíò_149-9" x1="8.27" y1="26.04" x2="8.27" y2="18.12" xlink:href="#Áåçûìÿííûé_ãðàäèåíò_149"/><radialGradient id="Áåçûìÿííûé_ãðàäèåíò_52" cx="7.93" cy="2717.04" r="5.53" gradientTransform="translate(0 -2025.74) scale(1 0.75)" gradientUnits="userSpaceOnUse"><stop offset="0" stop-color="#ffcf1d"/><stop offset="1" stop-color="#f79027"/></radialGradient><linearGradient id="Áåçûìÿííûé_ãðàäèåíò_149-10" x1="90.71" y1="26.04" x2="90.71" y2="18.12" xlink:href="#Áåçûìÿííûé_ãðàäèåíò_149"/><radialGradient id="Áåçûìÿííûé_ãðàäèåíò_52-2" cx="90.37" cy="2717.04" r="5.53" xlink:href="#Áåçûìÿííûé_ãðàäèåíò_52"/></defs><g class="cls-1"><g id="Layer_1" data-name="Layer 1"><path class="cls-2" d="M98.51,27.56,83.58,30.88l14-1.08c-.41.81-.7,1.26-.7,1.26l-4.12,3.51c-39.69,10.65-85.4.12-85.4.12l-4.22-3C-.29,25.18-.43,19.86.48,16H12L.79,14.8A15.77,15.77,0,0,1,4.43,8.38l6.1-2.75c45.53-8.39,83.22,1,83.22,1L97.89,10A22.67,22.67,0,0,1,98.51,27.56Z" transform="translate(0 -0.25)"/><polygon class="cls-3" points="97.57 29.55 96.89 27.67 83.58 30.63 97.57 29.55"/><g class="cls-4"><path class="cls-5" d="M19.31,36.83A55.72,55.72,0,0,1,48.22,11.25C69.18,3,99.3,13.62,99.3,13.62l.54,3.12S71.41,2.44,50.42,11.46,22.17,37.23,22.17,37.23Z" transform="translate(0 -0.25)"/><path class="cls-6" d="M23.52,37.41s4.75-14,24.7-20.67,30,3.63,36.33,8,15.19-1.91,15.19-1.91l-1.23,4.74s-8.15,2-13.24-1.09S65.63,10.7,49.7,17.62,30.86,38.24,30.86,38.24Z" transform="translate(0 -0.25)"/><path class="cls-7" d="M13.51,35.89a79.75,79.75,0,0,0,15.23-14.5C36,12.31,38.27,5.71,38.27,5.71L43.2,2.55l-4.47.1L31.2,5.15S22.19,27,8,34.83Z" transform="translate(0 -0.25)"/><path class="cls-8" d="M40.75,39.25a33.58,33.58,0,0,1,21.74-16C77.8,19.91,91.12,35,91.12,35l-2.39.58S77.14,20.16,62.43,23.9A32,32,0,0,0,42.14,39.25Z" transform="translate(0 -0.25)"/><path class="cls-9" d="M54.36,32.33A15.21,15.21,0,0,1,65.2,26.21c7.15-.55,10.15,3.64,10.15,3.64S61.05,34.86,54.36,32.33Z" transform="translate(0 -0.25)"/><path class="cls-10" d="M81.29,18.41s-8.49-6.93-17.8-5.73C63.49,12.68,75.42,10.77,81.29,18.41Z" transform="translate(0 -0.25)"/><polygon class="cls-11" points="34.76 16.49 43.58 5.11 47.27 2.21 49.7 2.16 44.88 4.8 39.08 12.21 51.88 4.8 58.4 1.94 59.67 1.9 53.44 4.8 34.76 16.49"/><path class="cls-12" d="M2,29.4s19.67-10,21.49-25.73L20.65,4s-4.6,18.53-19.2,23.89Z" transform="translate(0 -0.25)"/></g><path class="cls-13" d="M10.53,5.63S25.29,1.81,47.32.42,93.75,6.67,93.75,6.67,52.07-2,10.53,5.63Z" transform="translate(0 -0.25)"/><path class="cls-14" d="M8,34.83s47.39,8.83,84.75-.26C92.75,34.57,61.09,46.05,8,34.83Z" transform="translate(0 -0.25)"/><polygon class="cls-14" points="20.65 15.71 28.46 15.71 45.19 16.49 26.42 16.49 20.65 15.71"/><polygon class="cls-3" points="0.48 15.71 2.36 14.71 20.65 15.71 11.84 16.27 0.48 15.71"/><polygon class="cls-14" points="83.58 30.63 78.12 31.64 69.42 34.31 76.5 32.79 83.58 30.63"/><polygon class="cls-14" points="9.44 31.35 7.08 27.67 9.44 29.51 9.44 31.35"/><polygon class="cls-14" points="91.8 23.77 90.58 22.41 87.51 16.1 91.8 23.77"/><polygon class="cls-14" points="90.06 23.77 88.73 23.34 85.89 24.21 90.06 23.77"/><polygon class="cls-14" points="13.46 13.1 16.34 12.21 23.42 12.21 13.46 13.1"/><polygon class="cls-14" points="51.14 34.37 54.43 33.88 55.61 34.66 51.14 34.37"/><polygon class="cls-15" points="49.7 2.16 55.03 3.42 70.91 3.31 59.67 1.9 49.7 2.16"/><polygon class="cls-15" points="78.39 4.09 83.58 4.49 87.51 5.33 85.15 6.42 78.39 4.09"/><path class="cls-16" d="M87.51,5.58l5.06,1.64,4.64,3.56,2.63,7.11a17.21,17.21,0,0,0-2-7.94L93.75,6.67Z" transform="translate(0 -0.25)"/><path class="cls-17" d="M.79,14.8s2.47-4.42,4.84-6.22,11.43-4,11.43-4L10.53,5.63,4.43,8.38A11.68,11.68,0,0,0,.79,14.8Z" transform="translate(0 -0.25)"/><polygon class="cls-18" points="0.48 15.71 6.16 16.43 11.84 16.27 0.48 15.71"/><polygon class="cls-19" points="39.34 2.38 42.28 5.33 40.81 2.66 41.82 1.31 39.34 2.38"/><polygon class="cls-20" points="42.28 5.33 40.19 2.66 41.82 1.31 39.34 2.38 42.28 5.33"/><polygon class="cls-20" points="13.46 13.1 17.06 13.1 23.42 12.21 13.46 13.1"/><polygon class="cls-21" points="7.08 27.67 7.76 29.35 9.44 31.35 7.08 27.67"/><polygon class="cls-21" points="69.42 34.31 82.25 31.04 77.61 32.79 73.44 33.65 69.42 34.31"/><polygon class="cls-21" points="51.14 34.37 52.62 34.81 55.61 34.66 51.14 34.37"/><polygon class="cls-19" points="2.13 18.88 3.08 18.56 4.14 18.72 3.48 19.27 2.13 18.88"/><polygon class="cls-19" points="59.25 5.61 59.92 4.81 62.4 5.61 61.73 6.89 60.09 6.89 59.25 5.61"/><polygon class="cls-19" points="65.67 7.69 65.98 7.38 67.31 8.03 66.46 8.57 65.67 7.98 65.67 7.69"/><polygon class="cls-22" points="59.25 5.61 60.08 6.64 61.45 6.79 61.78 6.79 61.73 6.89 60.09 6.99 59.25 5.61"/><polygon class="cls-22" points="65.67 7.98 66.23 8.31 66.79 8.31 67.31 8.03 66.63 8.57 66.46 8.57 65.67 7.98"/><polygon class="cls-22" points="2.13 18.88 2.95 19.27 3.82 19.39 4.14 18.72 3.58 19.05 2.13 18.88"/><path class="cls-23" d="M63.06.74l7.85,2.82,5.72.58L75.35,2.39S66.76,1,63.06.74Z" transform="translate(0 -0.25)"/><path class="cls-23" d="M36.4,2.75,40.08,1s-7.3.47-15.57,1.93L22,3.92S30.81,3,36.4,2.75Z" transform="translate(0 -0.25)"/><path class="cls-24" d="M31.93,35.06s5.35-11.31,16.71-17C48.64,18.1,38.69,20.91,31.93,35.06Z" transform="translate(0 -0.25)"/><path class="cls-24" d="M13.51,35.89A89.56,89.56,0,0,0,30.36,19.3S27.83,25.59,13.51,35.89Z" transform="translate(0 -0.25)"/><polygon class="cls-25" points="3.54 19.56 3.54 23.98 6.12 26.04 10.85 26.04 13 23.81 13 18.12 3.54 19.56"/><polygon class="cls-26" points="3.98 22.39 3.32 18.12 5.85 16.14 10.85 16.14 13 18.12 12.7 22.45 10.16 23.98 6.23 23.98 3.98 22.39"/><polygon class="cls-27" points="10.85 16.14 10.18 14.92 6.12 15.19 5.85 16.14 10.85 16.14"/><polygon class="cls-28" points="13 18.12 10.18 14.92 10.62 16.14 13 18.12"/><polygon class="cls-28" points="6.12 15.19 5.85 16.14 3.32 18.12 3.96 17.07 6.12 15.19"/><polygon class="cls-23" points="3.32 18.12 6.71 18.91 9.41 18.72 13 18.12 10.62 16.14 5.85 16.14 3.32 18.12"/><polygon class="cls-29" points="9.41 16.14 11.59 16.82 10.5 15.81 9.41 16.14"/><polygon class="cls-29" points="5.94 15.81 6.39 16.14 5.34 16.55 5.94 15.81"/><polygon class="cls-30" points="11.06 23.38 9.19 23.98 10.16 23.98 11.06 23.38"/><polygon class="cls-30" points="5.38 23.38 7.18 23.98 6.23 23.98 5.38 23.38"/><polygon class="cls-31" points="12.7 22.45 9.86 21.18 6.72 21.39 3.98 22.39 6.23 23.98 10.16 23.98 12.7 22.45"/><polygon class="cls-23" points="4.72 22.6 6.39 23.72 10.18 23.66 11.41 22.86 10.26 23.16 6.39 23.38 4.72 22.6"/><polygon class="cls-32" points="85.98 19.56 85.98 23.98 88.56 26.04 93.28 26.04 95.44 23.81 95.44 18.12 85.98 19.56"/><polygon class="cls-33" points="86.42 22.39 85.76 18.12 88.29 16.14 93.28 16.14 95.44 18.12 95.14 22.45 92.6 23.98 88.66 23.98 86.42 22.39"/><polygon class="cls-27" points="93.28 16.14 92.61 14.92 88.56 15.19 88.29 16.14 93.28 16.14"/><polygon class="cls-28" points="95.44 18.12 92.61 14.92 93.06 16.14 95.44 18.12"/><polygon class="cls-28" points="88.56 15.19 88.29 16.14 85.76 18.12 86.4 17.07 88.56 15.19"/><polygon class="cls-23" points="85.76 18.12 89.15 18.91 91.85 18.72 95.44 18.12 93.06 16.14 88.29 16.14 85.76 18.12"/><polygon class="cls-29" points="91.85 16.14 94.03 16.82 92.94 15.81 91.85 16.14"/><polygon class="cls-29" points="88.38 15.81 88.83 16.14 87.78 16.55 88.38 15.81"/><polygon class="cls-30" points="93.5 23.38 91.62 23.98 92.6 23.98 93.5 23.38"/><polygon class="cls-30" points="87.82 23.38 89.61 23.98 88.66 23.98 87.82 23.38"/><polygon class="cls-31" points="95.14 22.45 92.56 21.17 89.16 21.39 86.42 22.39 88.66 23.98 92.6 23.98 95.14 22.45"/><polygon class="cls-23" points="87.16 22.6 88.83 23.72 92.61 23.66 93.85 22.86 92.7 23.16 88.83 23.38 87.16 22.6"/><text class="cls-34" transform="translate(21.46 25.91)">Play Now</text></g></g></svg>